PathFileType	4	(X/Y/Z)	s06c0402.trc
DataRate	CameraRate	NumFrames	NumMarkers	Units	OrigDataRate	OrigDataStartFrame	OrigNumFrames
200	200	4	48	mm	200	1250	2000
Frame#	Time	racr			lacr			c7			jug			rlel			rdr			llel			ldr			s2			lic			ric			lasi			rasi			rpsi			lpsi			rgt			lgt			rth1			rth2			rth3			rth4			rlfc			rmfc			rsh1			rsh2			rsh3			rsh4			rlmal			rcal			rtoe			rmt5			lth1			lth2			lth4			lth3			llfc			lmfc			llmal			lcal			lmt5			lsh1			lsh2			lsh3			lsh4			ltoe			SBIKE			LBIKE			RBIKE			
		X1	Y1	Z1	X2	Y2	Z2	X3	Y3	Z3	X4	Y4	Z4	X5	Y5	Z5	X6	Y6	Z6	X7	Y7	Z7	X8	Y8	Z8	X9	Y9	Z9	X10	Y10	Z10	X11	Y11	Z11	X12	Y12	Z12	X13	Y13	Z13	X14	Y14	Z14	X15	Y15	Z15	X16	Y16	Z16	X17	Y17	Z17	X18	Y18	Z18	X19	Y19	Z19	X20	Y20	Z20	X21	Y21	Z21	X22	Y22	Z22	X23	Y23	Z23	X24	Y24	Z24	X25	Y25	Z25	X26	Y26	Z26	X27	Y27	Z27	X28	Y28	Z28	X29	Y29	Z29	X30	Y30	Z30	X31	Y31	Z31	X32	Y32	Z32	X33	Y33	Z33	X34	Y34	Z34	X35	Y35	Z35	X36	Y36	Z36	X37	Y37	Z37	X38	Y38	Z38	X39	Y39	Z39	X40	Y40	Z40	X41	Y41	Z41	X42	Y42	Z42	X43	Y43	Z43	X44	Y44	Z44	X45	Y45	Z45	X46	Y46	Z46	X47	Y47	Z47	X48	Y48	Z48	
1250	6.2500	715.461828	1279.506748	-39.937500	737.412586	1221.431338	-364.124943	741.822516	1353.744530	-203.413237	703.687191	1196.643566	-190.865698	558.750999	1084.379338	90.911191	681.361836	942.859108	-38.539389	530.912758	1068.854786	-490.614134	663.108730	922.664077	-392.840496	178.825784	1201.009396	-247.836654	351.852297	1116.902946	-385.213476	300.752749	1184.134646	-66.478470	351.945751	1060.780328	-348.086036	334.051374	1135.350403	-94.633837	214.162406	1238.802183	-221.939652	222.006406	1228.348452	-279.824257	285.934856	1126.470690	-26.209454	284.135822	1038.752006	-412.392114	392.474075	1047.631418	-26.787087	474.301826	1010.399798	-36.429658	523.115002	940.955825	-36.942668	492.347842	1035.753595	-58.965997	571.426426	852.320416	-67.334998	553.432687	832.233050	-180.348777	486.818926	765.106908	-40.627048	431.665763	701.424233	-57.624877	349.621679	666.907432	-54.513757	443.935266	685.244682	-93.615425	270.466117	623.849461	-56.630376	201.854130	641.713719	-102.918856	377.945867	429.282282	-106.386602	300.348304	487.324206	-34.613868	258.000042	917.146758	-432.511320	277.907327	832.305495	-431.084688	314.763421	830.983751	-422.695254	251.870294	747.013839	-421.364882	243.753742	631.691733	-396.129507	252.343167	611.710674	-278.501987	136.202578	283.746553	-370.683273	75.654308	301.257793	-322.227054	196.217336	146.711092	-403.248081	208.054271	530.029677	-412.304393	207.777615	444.524876	-395.664367	163.328789	367.890251	-384.804490	238.355134	440.619446	-371.101409	266.718884	92.845121	-347.165565	-156.554933	855.280490	-222.930930	-49.326760	79.618677	-415.429052	-49.372753	79.800637	-17.975374	
1251	6.2550	715.676036	1277.701263	-38.955268	737.795442	1220.357887	-363.169345	742.432517	1352.494047	-202.277429	703.433086	1195.218445	-190.262623	557.627821	1083.409431	91.320386	681.022859	943.119965	-38.772027	531.579592	1068.614161	-491.239081	663.281547	922.318943	-393.119304	178.268524	1203.570692	-248.091396	351.882264	1118.493972	-384.716766	301.722015	1186.984123	-66.369629	351.223709	1062.668202	-347.433445	334.190785	1137.426854	-94.239695	214.327328	1241.544509	-222.536133	222.207317	1230.693963	-280.173015	285.775457	1130.415917	-26.547674	283.865459	1040.805621	-412.267347	391.486346	1051.054739	-26.447175	472.769169	1013.932993	-35.771308	522.504780	943.325275	-38.040857	491.379061	1038.676421	-59.444598	571.518009	854.837154	-68.114813	553.482621	835.571762	-181.420283	487.458271	766.339358	-40.880605	433.719880	701.244000	-57.648890	352.440116	665.206010	-54.502147	446.336282	685.189104	-93.551888	274.062315	619.815052	-56.750940	204.591168	635.202269	-102.666150	389.438853	430.032202	-106.074153	309.138597	484.752311	-34.613437	258.345447	918.707834	-432.440143	279.067372	834.021345	-431.466203	315.879206	832.982058	-422.827907	253.697359	748.460339	-422.039589	245.813642	633.475399	-396.193086	254.656609	613.555188	-278.407309	130.391684	288.468629	-370.243824	70.432050	307.510056	-321.838984	186.558076	149.910749	-403.048656	208.200811	532.762430	-412.136989	205.897769	447.381344	-395.186034	159.683284	371.833321	-384.317668	236.323778	442.727034	-370.599589	255.650161	94.065730	-347.160462	-156.630698	855.316070	-222.919091	-49.337695	79.672917	-415.406683	-49.362301	79.822587	-17.965374	
1252	6.2600	716.069189	1275.828558	-37.968902	738.148115	1219.207165	-362.250352	743.243996	1351.207477	-201.234692	703.257922	1193.932595	-189.538528	556.605077	1082.509366	91.523835	680.788157	943.485057	-38.969464	532.154277	1068.353709	-491.795996	663.501607	922.025266	-393.403656	178.296476	1207.040464	-248.440819	351.668416	1120.456862	-384.472725	300.539986	1189.568233	-67.748649	350.293323	1064.927785	-347.085438	332.156854	1139.306394	-95.433695	214.563175	1244.673516	-222.965533	222.335098	1233.519976	-280.530786	285.449402	1134.482355	-26.678769	283.367590	1043.297098	-412.252975	390.503516	1052.960822	-27.965283	472.224739	1016.049066	-36.865372	521.236072	945.120122	-38.805240	492.469866	1041.074595	-58.848364	570.669847	856.653819	-68.687064	552.790256	837.772434	-182.208766	487.312349	766.831632	-41.286968	434.988578	700.301011	-57.550818	354.682017	662.692944	-54.447631	448.227022	684.395884	-93.302290	277.489956	614.891482	-56.682435	207.062586	627.618478	-102.292774	400.317585	430.349869	-106.274614	317.921880	481.493143	-34.578057	258.939944	920.513956	-432.357705	280.865841	836.092930	-431.808970	317.670061	835.517895	-422.918535	256.749536	750.123857	-422.814216	249.064467	635.366148	-396.382095	258.060055	615.900343	-278.535342	125.154915	293.796890	-369.726736	65.724972	314.467843	-321.348434	177.138470	153.780573	-402.832309	209.316054	535.806962	-411.974579	204.842983	450.595883	-394.706858	156.747676	376.150910	-383.817898	235.080017	445.261882	-370.108543	244.754825	95.941873	-347.175117	-156.743980	855.471773	-222.912786	-49.333058	79.758923	-415.401375	-49.367560	79.860512	-17.963124	
1253	6.2650	716.544015	1273.849438	-37.077203	738.442870	1217.933767	-361.330818	744.162853	1349.948396	-200.299620	703.051911	1192.580394	-189.016396	555.554991	1081.790259	91.646850	680.577124	943.831212	-39.308738	532.637925	1068.091538	-492.305110	663.729468	921.783673	-393.753163	178.237192	1209.860663	-248.342279	351.249602	1122.729523	-384.440478	299.518157	1192.023311	-69.115827	349.310241	1067.346635	-347.021793	331.026877	1141.726682	-96.959530	214.845093	1247.939075	-223.130809	222.478003	1236.547592	-280.637832	285.312732	1137.856928	-28.027540	282.579360	1046.197324	-412.440314	389.307731	1055.023347	-28.914970	471.207550	1017.751251	-37.398832	519.198566	946.500778	-38.727868	487.393223	1042.180455	-60.567000	569.323413	857.592693	-68.848718	551.319090	838.642981	-182.629613	486.739074	766.353895	-41.123629	435.935182	698.319511	-57.605109	356.259309	659.507525	-54.111299	449.715648	682.841134	-92.801975	280.311182	609.069876	-56.329586	209.265084	618.943781	-101.793777	410.967832	430.047441	-106.100562	326.297545	477.583679	-34.359309	259.673419	922.444771	-432.403670	283.348270	838.525026	-432.080835	320.176042	838.672374	-422.991877	260.888287	752.043340	-423.437936	253.315938	637.565309	-396.705226	262.554197	618.542625	-278.851791	120.412062	299.808982	-369.164497	61.778216	321.839552	-320.703957	167.906075	158.210273	-402.495373	211.204737	538.945320	-412.121941	204.468003	453.894469	-393.992542	154.536298	381.057979	-383.430859	234.217425	447.643038	-368.464576	234.099956	98.565010	-347.217231	-153.398154	855.171125	-220.641190	-49.309020	79.852049	-415.366061	-49.360973	79.895062	-17.947512	
